<?xml version="1.0" encoding="utf-8"?>
<!-- Generator: Adobe Illustrator 20.0.0, SVG Export Plug-In . SVG Version: 6.00 Build 0)  -->
<svg version="1.1" id="Layer_1" xmlns="http://www.w3.org/2000/svg" xmlns:xlink="http://www.w3.org/1999/xlink" x="0px" y="0px"
	 viewBox="0 0 300 202.5" style="enable-background:new 0 0 300 202.5;" xml:space="preserve">
<style type="text/css">
	.st0{display:none;}
</style>
<g id="Layer_2">
	<path d="M222.5,0c-39.2,0-71.7,29.3-76.8,67.2l-64.9-56c-1.9-1.6-4.7-1.6-6.5,0L1.7,73.7C0.6,74.7,0,76,0,77.5v115
		c0,5.5,4.5,10,10,10h280c5.5,0,10-4.5,10-10v-115C300,34.8,265.2,0,222.5,0z M86.6,125.5c-0.4,0.4-1,0.6-1.6,0.6
		c-1.4,0-2.5-1.1-2.5-2.5V31.3c0-1.4,1.1-2.5,2.5-2.5c0.6,0,1.1,0.2,1.5,0.5l53.6,46.2l0,0c0.5,0.5,0.9,1.1,0.9,1.9
		s-0.3,1.4-0.9,1.9l0,0 M14.9,79.4c-0.5-0.5-0.9-1.1-0.9-1.9s0.3-1.4,0.9-1.9l53.5-46.2c0.4-0.4,1-0.6,1.6-0.6c1.3,0,2.4,1,2.5,2.3
		v92.5c0,1.4-1.1,2.5-2.5,2.5c-0.6,0-1.2-0.2-1.6-0.6 M145,187.5c0,2.7-2.2,4.9-4.9,5H14.9c-2.7-0.1-4.9-2.2-4.9-5V93.8
		c0-1.4,1.1-2.4,2.5-2.4c0.6,0,1.1,0.2,1.6,0.6l60.2,51.9c0.9,0.8,2.1,1.2,3.3,1.2s2.3-0.4,3.3-1.2l60-51.9c0.4-0.4,1-0.6,1.6-0.6
		c1.4,0,2.5,1.1,2.5,2.4L145,187.5L145,187.5z M155,77.5L155,77.5L155,77.5c0-37.2,30.3-67.5,67.5-67.5S290,40.3,290,77.5v110.1
		c-0.1,2.7-2.2,4.9-4.9,4.9H159.9c-2.7-0.1-4.9-2.3-4.9-5"/>
</g>
<g id="Layer_3" class="st0">
</g>
</svg>
